<?xml version="1.0" encoding="iso-8859-1"?>
<svg width="27" height="27" viewBox="0 0 27 27" fill="none" xmlns="http://www.w3.org/2000/svg">
<g filter="url(#filter0_d)">
<circle cx="13.5" cy="9.5" r="9.5" fill="#FFCE00"/>
<circle cx="13.5" cy="9.5" r="9.25" stroke="black" stroke-width="0.5"/>
</g>
<path d="M12.34 10.31L12.354 10.198C12.354 9.79667 12.466 9.47933 12.69 9.246C12.9233 9.01267 13.1753 8.85867 13.446 8.784C13.7166 8.70933 13.964 8.58333 14.188 8.406C14.4213 8.22867 14.538 7.99067 14.538 7.692C14.538 7.384 14.4493 7.146 14.272 6.978C14.104 6.81 13.8473 6.726 13.502 6.726C13.1566 6.726 12.9 6.782 12.732 6.894C12.5733 6.99667 12.4753 7.104 12.438 7.216L12.396 7.384C12.312 7.62667 12.214 7.81333 12.102 7.944C11.99 8.06533 11.8453 8.126 11.668 8.126C11.4906 8.126 11.2573 8.07 10.968 7.958C10.408 7.74333 10.128 7.47733 10.128 7.16C10.128 7.02 10.156 6.88 10.212 6.74C10.268 6.59067 10.3146 6.46933 10.352 6.376C10.3893 6.27333 10.4873 6.10067 10.646 5.858C10.814 5.61533 11.0006 5.40533 11.206 5.228C11.4206 5.04133 11.7193 4.87333 12.102 4.724C12.4846 4.56533 12.9093 4.486 13.376 4.486C14.3653 4.486 15.1726 4.80333 15.798 5.438C16.4233 6.07267 16.736 6.81 16.736 7.65C16.736 8.05133 16.6613 8.42467 16.512 8.77C16.372 9.106 16.1993 9.372 15.994 9.568C15.5833 9.96 15.2006 10.2213 14.846 10.352L14.622 10.422C14.622 10.5807 14.6126 10.702 14.594 10.786C14.5846 10.87 14.5426 10.9633 14.468 11.066C14.4026 11.1593 14.286 11.2293 14.118 11.276C13.9593 11.3133 13.7446 11.332 13.474 11.332C13.2033 11.332 12.984 11.3087 12.816 11.262C12.6573 11.2153 12.5453 11.136 12.48 11.024C12.4146 10.912 12.3726 10.814 12.354 10.73C12.3446 10.6367 12.34 10.4967 12.34 10.31ZM12.284 12.816C12.3586 12.6667 12.4893 12.5593 12.676 12.494C12.872 12.4287 13.1753 12.396 13.586 12.396C13.9966 12.396 14.2906 12.4893 14.468 12.676C14.6546 12.8533 14.748 13.2033 14.748 13.726C14.748 14.0993 14.7013 14.3793 14.608 14.566C14.5146 14.7433 14.37 14.8647 14.174 14.93C13.9873 14.986 13.6933 15.014 13.292 15.014C12.8906 15.014 12.5826 14.916 12.368 14.72C12.2093 14.5613 12.13 14.2907 12.13 13.908V13.684C12.13 13.4693 12.1346 13.306 12.144 13.194C12.1626 13.082 12.2093 12.956 12.284 12.816Z" fill="white"/>
<defs>
<filter id="filter0_d" x="0" y="0" width="27" height="27" filterUnits="userSpaceOnUse" color-interpolation-filters="sRGB">
<feFlood flood-opacity="0" result="BackgroundImageFix"/>
<feColorMatrix in="SourceAlpha" type="matrix" values="0 0 0 0 0 0 0 0 0 0 0 0 0 0 0 0 0 0 127 0"/>
<feOffset dy="4"/>
<feGaussianBlur stdDeviation="2"/>
<feColorMatrix type="matrix" values="0 0 0 0 0 0 0 0 0 0 0 0 0 0 0 0 0 0 0.25 0"/>
<feBlend mode="normal" in2="BackgroundImageFix" result="effect1_dropShadow"/>
<feBlend mode="normal" in="SourceGraphic" in2="effect1_dropShadow" result="shape"/>
</filter>
</defs>
</svg>
