<svg width="19" height="19" viewBox="0 0 19 19" fill="none" xmlns="http://www.w3.org/2000/svg">
<path d="M9.5 19C14.7467 19 19 14.7467 19 9.5C19 4.25329 14.7467 0 9.5 0C4.25329 0 0 4.25329 0 9.5C0 14.7467 4.25329 19 9.5 19Z" fill="#FFCE00"/>
<path d="M9.5 18.75C14.6086 18.75 18.75 14.6086 18.75 9.5C18.75 4.39137 14.6086 0.25 9.5 0.25C4.39137 0.25 0.25 4.39137 0.25 9.5C0.25 14.6086 4.39137 18.75 9.5 18.75Z" stroke="black" stroke-width="0.5"/>
<path d="M8.33999 10.31L8.35399 10.198C8.35399 9.79666 8.46599 9.47932 8.68999 9.24599C8.92329 9.01266 9.17529 8.85866 9.44599 8.78399C9.71659 8.70932 9.96399 8.58332 10.188 8.40599C10.4213 8.22866 10.538 7.99066 10.538 7.69199C10.538 7.38399 10.4493 7.14599 10.272 6.97799C10.104 6.80999 9.84729 6.72599 9.50199 6.72599C9.15659 6.72599 8.89999 6.78199 8.73199 6.89399C8.57329 6.99666 8.47529 7.10399 8.43799 7.21599L8.39599 7.38399C8.31199 7.62666 8.21399 7.81332 8.10199 7.94399C7.98999 8.06532 7.84529 8.12599 7.66799 8.12599C7.49059 8.12599 7.25729 8.06999 6.96799 7.95799C6.40799 7.74332 6.12799 7.47732 6.12799 7.15999C6.12799 7.01999 6.15599 6.87999 6.21199 6.73999C6.26799 6.59066 6.31459 6.46932 6.35199 6.37599C6.38929 6.27332 6.48729 6.10066 6.64599 5.85799C6.81399 5.61532 7.00059 5.40532 7.20599 5.22799C7.42059 5.04132 7.71929 4.87332 8.10199 4.72399C8.48459 4.56532 8.90929 4.48599 9.37599 4.48599C10.3653 4.48599 11.1726 4.80332 11.798 5.43799C12.4233 6.07266 12.736 6.80999 12.736 7.64999C12.736 8.05132 12.6613 8.42466 12.512 8.76999C12.372 9.10599 12.1993 9.37199 11.994 9.56799C11.5833 9.95999 11.2006 10.2213 10.846 10.352L10.622 10.422C10.622 10.5807 10.6126 10.702 10.594 10.786C10.5846 10.87 10.5426 10.9633 10.468 11.066C10.4026 11.1593 10.286 11.2293 10.118 11.276C9.95929 11.3133 9.74459 11.332 9.47399 11.332C9.20329 11.332 8.98399 11.3087 8.81599 11.262C8.65729 11.2153 8.54529 11.136 8.47999 11.024C8.41459 10.912 8.37259 10.814 8.35399 10.73C8.34459 10.6367 8.33999 10.4967 8.33999 10.31ZM8.28399 12.816C8.35859 12.6667 8.48929 12.5593 8.67599 12.494C8.87199 12.4287 9.17529 12.396 9.58599 12.396C9.99659 12.396 10.2906 12.4893 10.468 12.676C10.6546 12.8533 10.748 13.2033 10.748 13.726C10.748 14.0993 10.7013 14.3793 10.608 14.566C10.5146 14.7433 10.37 14.8647 10.174 14.93C9.98729 14.986 9.69329 15.014 9.29199 15.014C8.89059 15.014 8.58259 14.916 8.36799 14.72C8.20929 14.5613 8.12999 14.2907 8.12999 13.908V13.684C8.12999 13.4693 8.13459 13.306 8.14399 13.194C8.16259 13.082 8.20929 12.956 8.28399 12.816Z" fill="white"/>
</svg>
