<?xml version="1.0" encoding="utf-8"?>
<!-- Generator: Adobe Illustrator 16.0.0, SVG Export Plug-In . SVG Version: 6.00 Build 0)  -->
<!DOCTYPE svg PUBLIC "-//W3C//DTD SVG 1.1//EN" "http://www.w3.org/Graphics/SVG/1.1/DTD/svg11.dtd">
<svg version="1.1" xmlns="http://www.w3.org/2000/svg" xmlns:xlink="http://www.w3.org/1999/xlink" x="0px" y="0px" width="690px"
	 height="690px" viewBox="0 0 690 690" enable-background="new 0 0 690 690" xml:space="preserve">
<g id="BG">
</g>
<g id="Object">
	<path fill="#EDEDED" d="M667.92,264.798l-66.45-9.655l-3.78-0.55l0,0L458.242,234.33c-3.449-0.501-6.432-2.668-7.975-5.794
		l-93.771-190c-3.885-7.872-15.109-7.872-18.995,0l-93.771,190c-1.543,3.126-4.525,5.293-7.975,5.794L26.08,264.798
		c-8.687,1.263-12.156,11.938-5.87,18.065l151.724,147.895c2.496,2.433,3.635,5.938,3.046,9.374l-31.695,184.801c0,0,0,0,0,0
		l-4.121,24.03c-0.186,1.081-0.206,2.131-0.084,3.131c0.85,7.003,8.653,11.608,15.452,8.034l187.541-98.597
		c1.543-0.811,3.236-1.217,4.929-1.217c1.27,0,2.539,0.229,3.746,0.685c0.401,0.152,0.797,0.329,1.183,0.532l187.541,98.597
		c7.77,4.085,16.852-2.514,15.367-11.165L519.02,440.132c-0.073-0.43-0.12-0.86-0.141-1.289c-0.143-3.007,1.003-5.956,3.187-8.085
		L673.79,282.863c1.571-1.531,2.533-3.348,2.956-5.23c0.159-0.705,0.242-1.421,0.253-2.134
		C677.075,270.509,673.621,265.627,667.92,264.798z"/>
</g>
</svg>
